<svg xmlns="http://www.w3.org/2000/svg" viewBox="0 0 120 120">
  <!-- Emblème KAMISSA plein cadre : livre + pousse de manguier + mangue-soleil + ondes de la voix -->
  <rect width="120" height="120" fill="#2E3D96"/>
  <path d="M24 74 C38 66,50 66,60 72 C70 66,82 66,96 74 L96 85 C82 77,70 77,60 83 C50 77,38 77,24 85 Z" fill="#FDF8EF"/>
  <path d="M60 72 L60 49" stroke="#1FA05C" stroke-width="5" stroke-linecap="round" fill="none"/>
  <path d="M60 61 C51 61,45 56,44 48 C52 48,58 53,60 61 Z" fill="#1FA05C"/>
  <path d="M60 55 C69 55,75 50,76 42 C68 42,62 47,60 55 Z" fill="#1FA05C"/>
  <circle cx="60" cy="39" r="9.5" fill="#FFB81C"/>
  <path d="M75 30 a13 13 0 0 1 8 11" stroke="#E8482B" stroke-width="4.5" stroke-linecap="round" fill="none"/>
  <path d="M80 21 a21 21 0 0 1 12 17" stroke="#E8482B" stroke-width="4.5" stroke-linecap="round" fill="none"/>
</svg>
